<?xml version="1.0" standalone="no"?>
<!DOCTYPE svg PUBLIC "-//W3C//DTD SVG 20010904//EN"
 "http://www.w3.org/TR/2001/REC-SVG-20010904/DTD/svg10.dtd">
<svg version="1.0" xmlns="http://www.w3.org/2000/svg"
 width="840.000000pt" height="859.000000pt" viewBox="0 0 840.000000 859.000000"
 preserveAspectRatio="xMidYMid meet">

<g transform="translate(0.000000,859.000000) scale(0.100000,-0.100000)"
fill="#000000" stroke="none">
<path d="M3145 7620 c-787 -56 -1517 -378 -2079 -920 -552 -533 -879 -1169
-997 -1945 -26 -170 -36 -557 -20 -745 37 -420 154 -837 335 -1199 588 -1171
1783 -1888 3081 -1848 431 14 792 90 1181 250 1005 412 1774 1340 1988 2398
55 272 61 342 61 684 -1 281 -4 338 -23 465 -13 80 -25 152 -28 161 -4 13 -23
18 -92 24 -147 11 -371 -26 -505 -84 -41 -18 -47 -24 -42 -43 15 -65 36 -240
45 -375 18 -266 -10 -543 -80 -819 -50 -197 -93 -312 -195 -519 -138 -282
-285 -487 -514 -715 -221 -220 -426 -367 -702 -504 -591 -294 -1292 -358
-1928 -175 -329 94 -657 263 -933 479 -107 84 -336 311 -422 420 -207 260
-386 598 -476 902 -197 659 -140 1356 160 1963 541 1097 1731 1687 2930 1454
447 -87 881 -297 1220 -590 l81 -70 54 40 c121 92 238 228 325 379 l42 73 -48
42 c-447 396 -1038 677 -1629 776 -252 42 -555 58 -790 41z"/>
<path d="M7399 7442 c-124 -70 -458 -257 -741 -416 l-515 -289 -18 -51 c-108
-306 -340 -611 -610 -804 -90 -63 -146 -96 -585 -342 -140 -78 -311 -174 -380
-213 -69 -38 -179 -100 -245 -137 -66 -37 -210 -118 -320 -180 l-199 -112 -36
22 c-130 78 -230 105 -390 104 -107 -1 -137 -5 -205 -27 -113 -37 -198 -90
-285 -177 -86 -86 -139 -171 -177 -285 -25 -72 -27 -94 -27 -220 0 -127 2
-147 28 -220 36 -103 84 -182 163 -266 78 -83 164 -139 274 -181 81 -31 89
-32 239 -32 150 0 158 1 239 32 113 43 197 100 280 188 114 122 177 265 189
431 l7 86 190 107 c1586 890 1514 851 1692 909 183 59 298 76 523 76 157 0
228 -4 302 -18 l97 -19 413 232 c227 128 563 316 745 418 183 103 333 189 333
192 0 3 -69 24 -153 48 -83 23 -303 85 -487 137 -184 52 -341 95 -349 95 -16
0 -21 -20 68 325 198 765 186 715 174 715 -5 -1 -110 -58 -234 -128z"/>
<path d="M3070 6290 c-143 -22 -219 -40 -340 -80 -823 -276 -1379 -1049 -1379
-1915 0 -777 445 -1485 1144 -1821 551 -264 1187 -267 1735 -8 714 338 1161
1046 1160 1838 0 130 -8 188 -25 184 -6 -2 -151 -81 -322 -177 l-311 -174 -6
-51 c-11 -82 -45 -204 -83 -300 -172 -434 -557 -751 -1021 -843 -130 -26 -396
-23 -522 4 -280 62 -531 201 -720 399 -170 178 -284 387 -345 634 -33 132 -44
353 -25 492 40 298 177 574 390 788 233 235 518 369 852 400 186 18 445 -18
606 -83 l60 -25 318 179 c175 98 320 183 322 188 2 6 -34 35 -80 64 -269 173
-534 271 -838 312 -147 20 -426 18 -570 -5z"/>
</g>
</svg>
