<?xml version="1.0" standalone="no"?>
<!DOCTYPE svg PUBLIC "-//W3C//DTD SVG 20010904//EN"
 "http://www.w3.org/TR/2001/REC-SVG-20010904/DTD/svg10.dtd">
<svg version="1.0" xmlns="http://www.w3.org/2000/svg"
 width="512.000000pt" height="512.000000pt" viewBox="0 0 512.000000 512.000000"
 preserveAspectRatio="xMidYMid meet">

<g transform="translate(0.000000,512.000000) scale(0.100000,-0.100000)"
fill="#000000" stroke="none">
<path d="M2365 4199 c-425 -44 -889 -243 -1345 -577 -325 -238 -665 -563 -910
-871 -85 -107 -110 -151 -110 -195 1 -42 40 -103 145 -229 589 -701 1283
-1189 1923 -1352 659 -167 1320 -4 2012 497 316 229 655 554 918 882 113 140
132 182 113 245 -22 76 -255 353 -493 587 -757 745 -1523 1089 -2253 1013z
m420 -304 c375 -53 738 -213 1125 -493 276 -201 551 -460 800 -756 l72 -86
-57 -68 c-474 -559 -988 -957 -1480 -1147 -547 -212 -1044 -175 -1612 120
-223 116 -442 264 -668 454 -118 99 -429 409 -539 538 l-88 103 93 107 c133
154 414 432 554 549 398 331 761 533 1140 634 216 58 456 74 660 45z"/>
<path d="M2392 3594 c-526 -88 -916 -561 -889 -1079 29 -544 461 -970 1018
-1002 585 -34 1099 456 1099 1047 0 644 -590 1141 -1228 1034z m393 -314 c244
-76 430 -263 507 -510 20 -65 23 -94 22 -215 -1 -125 -4 -149 -28 -220 -81
-238 -250 -408 -491 -492 -73 -25 -92 -27 -225 -27 -131 0 -153 3 -225 27
-133 45 -219 99 -320 201 -103 105 -145 170 -187 292 -143 414 136 868 593
964 76 16 275 5 354 -20z"/>
<path d="M2500 3003 c-203 -36 -360 -187 -392 -377 -48 -292 238 -563 537
-507 191 36 335 183 367 375 48 290 -223 560 -512 509z m140 -313 c45 -23 80
-81 80 -132 0 -46 -38 -107 -80 -130 -73 -40 -188 -1 -225 77 -32 70 -1 145
77 184 54 26 98 27 148 1z"/>
</g>
</svg>
